# xmcd CD database file
#
# Track frame offsets:
#	150
#	10138
#	24669
#	41347
#	52925
#	67693
#	79063
#	92561
#	103642
#	118296
#	129450
#	143812
#
# Disc length: 2111 seconds
#
# Revision: 0
# Processed by: cddbd v1.5.1PL0 Copyright (c) Steve Scherf et al.
# Submitted via: CDex 1.51
#
DISCID=91083d0c
DTITLE=Sisters of the Silver Sage - Sisters of the Silver Sage
DYEAR=2004
DGENRE=Country
TTITLE0=He's A Cowboy
TTITLE1=Ride Just Ride
TTITLE2=City of Angels
TTITLE3=Blue Blue Skies
TTITLE4=Seek Higher Ground
TTITLE5=I'd Like to be a Cowgirl
TTITLE6=I'll Meet You in Cheyenne
TTITLE7=How Western Swing was BOrn
TTITLE8=Little Darlin'
TTITLE9=The Buzzard and   the Cowpoke
TTITLE10=The Cold Wind Blows
TTITLE11=A Cowboy's Prayer
EXTD=YEAR: 2004
EXTT0=
EXTT1=
EXTT2=
EXTT3=
EXTT4=
EXTT5=
EXTT6=
EXTT7=
EXTT8=
EXTT9=
EXTT10=
EXTT11=
PLAYORDER=
